<svg width="24" height="24" viewBox="0 0 24 24" fill="none" xmlns="http://www.w3.org/2000/svg">
<path d="M20.9954 6.90072C20.9786 6.73272 20.9196 6.57171 20.8237 6.43269C20.7279 6.29368 20.5985 6.18119 20.4474 6.10572L12.4474 2.10572C12.3085 2.0362 12.1553 2 11.9999 2C11.8446 2 11.6914 2.0362 11.5524 2.10572L3.55243 6.10572C3.40159 6.18132 3.27233 6.29387 3.17669 6.43287C3.08105 6.57187 3.02213 6.73282 3.00543 6.90072C2.99443 7.00772 2.04443 17.6677 11.5944 21.9147C11.7223 21.9715 11.8606 22.0008 12.0004 22.0008C12.1403 22.0008 12.2786 21.9715 12.4064 21.9147C21.9564 17.6677 21.0064 7.00872 20.9954 6.90072ZM12.0004 19.8977C5.23143 16.6257 4.91143 9.64272 4.96643 7.63572L12.0004 4.11872L19.0294 7.63372C19.0664 9.62272 18.7014 16.6517 12.0004 19.8977Z" fill="black" fill-opacity="0.75"/>
<path d="M11 12.586L8.70697 10.293L7.29297 11.707L11 15.414L16.707 9.70697L15.293 8.29297L11 12.586Z" fill="black" fill-opacity="0.75"/>
</svg>
