<svg width="64" height="40" viewBox="0 0 64 40" fill="none" xmlns="http://www.w3.org/2000/svg">
<rect width="64" height="40" rx="4" fill="#355EC0"/>
<path d="M29.75 28.25C29.75 28.5467 29.662 28.8367 29.4972 29.0834C29.3324 29.33 29.0981 29.5223 28.824 29.6358C28.5499 29.7494 28.2483 29.7791 27.9574 29.7212C27.6664 29.6633 27.3991 29.5204 27.1893 29.3107C26.9796 29.1009 26.8367 28.8336 26.7788 28.5426C26.7209 28.2517 26.7506 27.9501 26.8642 27.676C26.9777 27.4019 27.17 27.1676 27.4166 27.0028C27.6633 26.838 27.9533 26.75 28.25 26.75C28.6478 26.75 29.0294 26.908 29.3107 27.1893C29.592 27.4706 29.75 27.8522 29.75 28.25ZM38 26.75C37.7033 26.75 37.4133 26.838 37.1666 27.0028C36.92 27.1676 36.7277 27.4019 36.6142 27.676C36.5006 27.9501 36.4709 28.2517 36.5288 28.5426C36.5867 28.8336 36.7296 29.1009 36.9393 29.3107C37.1491 29.5204 37.4164 29.6633 37.7074 29.7212C37.9983 29.7791 38.2999 29.7494 38.574 29.6358C38.8481 29.5223 39.0824 29.33 39.2472 29.0834C39.412 28.8367 39.5 28.5467 39.5 28.25C39.5 27.8522 39.342 27.4706 39.0607 27.1893C38.7794 26.908 38.3978 26.75 38 26.75ZM42.4728 14.9506L40.0691 23.6019C39.9369 24.0745 39.6542 24.4911 39.2639 24.7885C38.8736 25.0859 38.397 25.2479 37.9062 25.25H28.64C28.1478 25.2498 27.6693 25.0886 27.2772 24.791C26.8852 24.4935 26.6013 24.0758 26.4688 23.6019L23.18 11.75H21.5C21.3011 11.75 21.1103 11.671 20.9697 11.5303C20.829 11.3897 20.75 11.1989 20.75 11C20.75 10.8011 20.829 10.6103 20.9697 10.4697C21.1103 10.329 21.3011 10.25 21.5 10.25H23.75C23.914 10.25 24.0734 10.3037 24.204 10.4029C24.3345 10.5021 24.429 10.6414 24.4728 10.7994L25.3616 14H41.75C41.8656 14 41.9797 14.0267 42.0833 14.078C42.1869 14.1294 42.2772 14.204 42.3472 14.2961C42.4171 14.3881 42.4649 14.4951 42.4867 14.6086C42.5085 14.7222 42.5037 14.8392 42.4728 14.9506ZM40.7628 15.5H25.7787L27.9172 23.2006C27.961 23.3586 28.0555 23.4979 28.186 23.5971C28.3166 23.6963 28.476 23.75 28.64 23.75H37.9062C38.0702 23.75 38.2297 23.6963 38.3602 23.5971C38.4908 23.4979 38.5852 23.3586 38.6291 23.2006L40.7628 15.5Z" fill="white"/>
</svg>
