<svg width="50" height="50" viewBox="0 0 50 50" fill="none" xmlns="http://www.w3.org/2000/svg">
<path d="M40 36C40 38.7614 37.7614 41 35 41C32.2386 41 30 38.7614 30 36C30 33.2386 32.2386 31 35 31C37.7614 31 40 33.2386 40 36Z" stroke="#355EC0" stroke-width="2"/>
<path d="M20 36C20 38.7614 17.7614 41 15 41C12.2386 41 10 38.7614 10 36C10 33.2386 12.2386 31 15 31C17.7614 31 20 33.2386 20 36Z" stroke="#355EC0" stroke-width="2"/>
<path d="M30 36H20M5 9H25C27.8284 9 29.2426 9 30.1213 9.87868C31 10.7574 31 12.1716 31 15V32M32 14H35.6029C37.2621 14 38.0918 14 38.7795 14.3894C39.4673 14.7788 39.8941 15.4902 40.7478 16.913L44.145 22.5749C44.5698 23.2831 44.7823 23.6371 44.8911 24.0302C45 24.4232 45 24.8361 45 25.6619V31C45 32.8692 45 33.8038 44.5981 34.5C44.3348 34.9561 43.9561 35.3348 43.5 35.5981C42.8038 36 41.8692 36 40 36M5 27V31C5 32.8692 5 33.8038 5.40192 34.5C5.66523 34.9561 6.04394 35.3348 6.5 35.5981C7.19615 36 8.13077 36 10 36" stroke="#355EC0" stroke-width="2" stroke-linecap="round" stroke-linejoin="round"/>
<path d="M5 15H17M5 21H13" stroke="#355EC0" stroke-width="2" stroke-linecap="round" stroke-linejoin="round"/>
</svg>
