<svg width="37" height="34" viewBox="0 0 37 34" fill="none" xmlns="http://www.w3.org/2000/svg">
<path d="M23.1875 8C21.2516 8 19.5566 8.8325 18.5 10.2397C17.4434 8.8325 15.7484 8 13.8125 8C12.2715 8.00174 10.794 8.61468 9.70436 9.70436C8.61468 10.794 8.00174 12.2715 8 13.8125C8 20.375 17.7303 25.6869 18.1447 25.9062C18.2539 25.965 18.376 25.9958 18.5 25.9958C18.624 25.9958 18.7461 25.965 18.8553 25.9062C19.2697 25.6869 29 20.375 29 13.8125C28.9983 12.2715 28.3853 10.794 27.2956 9.70436C26.206 8.61468 24.7285 8.00174 23.1875 8ZM18.5 24.3875C16.7881 23.39 9.5 18.8459 9.5 13.8125C9.50149 12.6692 9.95632 11.5732 10.7647 10.7647C11.5732 9.95632 12.6692 9.50149 13.8125 9.5C15.6359 9.5 17.1669 10.4713 17.8062 12.0312C17.8628 12.1688 17.9589 12.2865 18.0824 12.3693C18.2059 12.4521 18.3513 12.4963 18.5 12.4963C18.6487 12.4963 18.7941 12.4521 18.9176 12.3693C19.0411 12.2865 19.1372 12.1688 19.1937 12.0312C19.8331 10.4684 21.3641 9.5 23.1875 9.5C24.3308 9.50149 25.4268 9.95632 26.2353 10.7647C27.0437 11.5732 27.4985 12.6692 27.5 13.8125C27.5 18.8384 20.21 23.3891 18.5 24.3875Z" fill="#1A1A1C"/>
</svg>
