<svg width="48" height="48" viewBox="0 0 48 48" fill="none" xmlns="http://www.w3.org/2000/svg">
<path d="M29.6417 30.296H34.7706C36.7959 30.2618 39.8901 31.3279 39.8901 35.1726C39.8901 39.1618 36.0719 39.8305 34.7706 39.8305C33.4692 39.8305 21.1797 39.8305 17.6374 39.8305C13.6696 39.8305 8.22556 39.0268 8.22559 32.1817L8.22559 17.6699H39.8901V24.8218M29.6417 30.296C29.6502 29.9574 29.7943 29.6216 30.0741 29.3775L32.7687 27.1288M29.6417 30.296C29.6326 30.6574 29.778 31.0219 30.0777 31.2814L32.7687 33.4722" stroke="#355EC0" stroke-width="2" stroke-linecap="round" stroke-linejoin="round"/>
<path d="M8.23438 17.6501L9.69346 14.007C10.8774 11.1758 11.4694 9.76013 12.6694 8.96307C13.8693 8.16602 15.4085 8.16602 18.4869 8.16602H29.6008C32.6791 8.16602 34.2183 8.16602 35.4182 8.96307C36.6182 9.76013 37.2101 11.1758 38.3942 14.007L39.8918 17.6558" stroke="#355EC0" stroke-width="2" stroke-linecap="round"/>
<path d="M24 17.666V8.16602" stroke="#355EC0" stroke-width="2" stroke-linecap="round"/>
<path d="M20.833 24H27.1663" stroke="#355EC0" stroke-width="2" stroke-linecap="round"/>
</svg>
