<svg width="90" height="80" viewBox="0 0 90 80" fill="none" xmlns="http://www.w3.org/2000/svg">
<g filter="url(#filter0_d_267_2479)">
<rect x="70" y="60" width="50" height="50" rx="14" transform="rotate(180 70 60)" fill="#FCFBFF"/>
<path d="M39.969 34.469L47.469 26.969C47.5386 26.8993 47.6214 26.844 47.7124 26.8063C47.8035 26.7686 47.901 26.7492 47.9996 26.7492C48.0981 26.7492 48.1957 26.7686 48.2868 26.8063C48.3778 26.844 48.4605 26.8993 48.5302 26.969C48.5999 27.0386 48.6552 27.1214 48.6929 27.2124C48.7306 27.3035 48.75 27.401 48.75 27.4996C48.75 27.5981 48.7306 27.6957 48.6929 27.7868C48.6552 27.8778 48.5999 27.9605 48.5302 28.0302L41.5599 34.9996L48.5302 41.969C48.6709 42.1097 48.75 42.3006 48.75 42.4996C48.75 42.6986 48.6709 42.8895 48.5302 43.0302C48.3895 43.1709 48.1986 43.25 47.9996 43.25C47.8006 43.25 47.6097 43.1709 47.469 43.0302L39.969 35.5302C39.8992 35.4606 39.8439 35.3778 39.8062 35.2868C39.7684 35.1957 39.749 35.0981 39.749 34.9996C39.749 34.901 39.7684 34.8034 39.8062 34.7124C39.8439 34.6213 39.8992 34.5386 39.969 34.469Z" fill="#355EC0"/>
</g>
<defs>
<filter id="filter0_d_267_2479" x="0" y="0" width="90" height="90" filterUnits="userSpaceOnUse" color-interpolation-filters="sRGB">
<feFlood flood-opacity="0" result="BackgroundImageFix"/>
<feColorMatrix in="SourceAlpha" type="matrix" values="0 0 0 0 0 0 0 0 0 0 0 0 0 0 0 0 0 0 127 0" result="hardAlpha"/>
<feMorphology radius="4" operator="dilate" in="SourceAlpha" result="effect1_dropShadow_267_2479"/>
<feOffset dy="10"/>
<feGaussianBlur stdDeviation="8"/>
<feComposite in2="hardAlpha" operator="out"/>
<feColorMatrix type="matrix" values="0 0 0 0 0.0476293 0 0 0 0 0.12053 0 0 0 0 0.203846 0 0 0 0.04 0"/>
<feBlend mode="normal" in2="BackgroundImageFix" result="effect1_dropShadow_267_2479"/>
<feBlend mode="normal" in="SourceGraphic" in2="effect1_dropShadow_267_2479" result="shape"/>
</filter>
</defs>
</svg>
