<svg width="37" height="34" viewBox="0 0 37 34" fill="none" xmlns="http://www.w3.org/2000/svg">
<path d="M28.9466 17.4688L25.9466 9.96875C25.8805 9.80355 25.7579 9.66721 25.6006 9.58409C25.4433 9.50097 25.2615 9.47648 25.0878 9.515L19.25 10.8125V8.75C19.25 8.55109 19.171 8.36032 19.0303 8.21967C18.8897 8.07902 18.6989 8 18.5 8C18.3011 8 18.1103 8.07902 17.9697 8.21967C17.829 8.36032 17.75 8.55109 17.75 8.75V11.1481L11.5869 12.5178C11.4681 12.5441 11.3574 12.5988 11.2645 12.6774C11.1715 12.756 11.0991 12.8559 11.0535 12.9688V12.9744L8.05345 20.4688C8.01756 20.5581 7.99941 20.6537 8.00001 20.75C8.00001 22.9353 10.3006 23.75 11.75 23.75C13.1994 23.75 15.5 22.9353 15.5 20.75C15.5006 20.6537 15.4825 20.5581 15.4466 20.4688L12.7738 13.7909L17.75 12.6875V24.5H16.25C16.0511 24.5 15.8603 24.579 15.7197 24.7197C15.579 24.8603 15.5 25.0511 15.5 25.25C15.5 25.4489 15.579 25.6397 15.7197 25.7803C15.8603 25.921 16.0511 26 16.25 26H20.75C20.9489 26 21.1397 25.921 21.2803 25.7803C21.421 25.6397 21.5 25.4489 21.5 25.25C21.5 25.0511 21.421 24.8603 21.2803 24.7197C21.1397 24.579 20.9489 24.5 20.75 24.5H19.25V12.3519L24.0313 11.2906L21.5535 17.4688C21.5176 17.5581 21.4994 17.6537 21.5 17.75C21.5 19.9353 23.8006 20.75 25.25 20.75C26.6994 20.75 29 19.9353 29 17.75C29.0006 17.6537 28.9825 17.5581 28.9466 17.4688ZM11.75 22.25C11.0441 22.25 9.61626 21.9116 9.50658 20.8775L11.75 15.2694L13.9935 20.8775C13.8838 21.9116 12.456 22.25 11.75 22.25ZM25.25 19.25C24.5441 19.25 23.1163 18.9116 23.0066 17.8775L25.25 12.2694L27.4935 17.8775C27.3838 18.9116 25.956 19.25 25.25 19.25Z" fill="#1A1A1C"/>
</svg>
