<svg width="50" height="50" viewBox="0 0 50 50" fill="none" xmlns="http://www.w3.org/2000/svg">
<path d="M35 22.6089C35 21.9177 35 21.5721 35.1041 21.2639C35.4065 20.3689 36.2036 20.0215 37.0022 19.6578C37.9 19.2488 38.3489 19.0444 38.7937 19.0084C39.2986 18.9676 39.8045 19.0764 40.236 19.3186C40.8081 19.6397 41.2072 20.2499 41.6157 20.746C43.5025 23.0377 44.4459 24.1835 44.7911 25.4471C45.0696 26.4668 45.0696 27.5332 44.7911 28.5529C44.2876 30.3959 42.697 31.9407 41.5196 33.3708C40.9173 34.1023 40.6162 34.4681 40.236 34.6814C39.8045 34.9236 39.2986 35.0324 38.7937 34.9916C38.3489 34.9556 37.9 34.7512 37.0022 34.3422C36.2036 33.9785 35.4065 33.6311 35.1041 32.7361C35 32.4279 35 32.0823 35 31.3911V22.6089Z" stroke="#355EC0" stroke-width="2"/>
<path d="M15 22.6092C15 21.7387 14.9756 20.9564 14.2718 20.3444C14.0159 20.1218 13.6765 19.9672 12.9978 19.6581C12.1 19.2492 11.6511 19.0447 11.2063 19.0087C9.87183 18.9008 9.15384 19.8116 8.38425 20.7464C6.4975 23.038 5.55412 24.1839 5.20893 25.4474C4.93036 26.4671 4.93036 27.5335 5.20893 28.5532C5.71241 30.3962 7.30304 31.941 8.48042 33.3711C9.22257 34.2725 9.93154 35.095 11.2063 34.9919C11.6511 34.956 12.1 34.7515 12.9978 34.3426C13.6765 34.0334 14.0159 33.8789 14.2718 33.6563C14.9756 33.0442 15 32.2619 15 31.3914V22.6092Z" stroke="#355EC0" stroke-width="2"/>
<path d="M11 19C11 12.3726 17.268 7 25 7C32.732 7 39 12.3726 39 19" stroke="#355EC0" stroke-width="2" stroke-linecap="square" stroke-linejoin="round"/>
<path d="M39 35V36.6C39 40.1346 35.4183 43 31 43H27" stroke="#355EC0" stroke-width="2" stroke-linecap="round" stroke-linejoin="round"/>
</svg>
