<svg width="50" height="50" viewBox="0 0 50 50" fill="none" xmlns="http://www.w3.org/2000/svg">
<path d="M23 45H20.2436C15.5479 45 13.2001 45 11.5713 43.5889C9.94254 42.1779 9.54363 39.7982 8.74579 35.0389L6.33866 20.6796C5.97471 18.5086 5.79273 17.423 6.37547 16.7115C6.9582 16 8.02922 16 10.1713 16H39.8287C41.9708 16 43.0418 16 43.6245 16.7115C44.2073 17.423 44.0253 18.5086 43.6613 20.6796L42.6018 27" stroke="#355EC0" stroke-width="2" stroke-linecap="round"/>
<path d="M28 41C28 41 30 41 32 45C32 45 38.3529 35 44 33" stroke="#355EC0" stroke-width="2" stroke-linecap="round" stroke-linejoin="round"/>
<path d="M36 16C36 9.92487 31.0751 5 25 5C18.9249 5 14 9.92487 14 16" stroke="#355EC0" stroke-width="2"/>
</svg>
