<svg width="28" height="28" viewBox="0 0 28 28" fill="none" xmlns="http://www.w3.org/2000/svg">
<g clip-path="url(#clip0_339_4097)">
<path d="M21.7153 0H6.28472C2.81377 0 0 2.81377 0 6.28472V21.7153C0 25.1862 2.81377 28 6.28472 28H21.7153C25.1862 28 28 25.1862 28 21.7153V6.28472C28 2.81377 25.1862 0 21.7153 0Z" fill="#7D3DAF"/>
<path d="M21.1716 9.97098C20.9084 9.16767 20.4527 8.44099 19.844 7.85436C19.2354 7.26772 18.4925 6.83898 17.6801 6.60554C15.2645 6.1419 12.7828 6.1419 10.3673 6.60554C9.54093 6.82458 8.78165 7.24477 8.15719 7.82861C7.53273 8.41246 7.06251 9.14181 6.78847 9.95158C6.34134 11.9801 6.34134 14.0817 6.78847 16.1102C7.04214 16.8815 7.47232 17.583 8.04478 18.1589C8.61724 18.7347 9.31619 19.169 10.086 19.4272V21.0662C10.0863 21.1976 10.1258 21.3259 10.1995 21.4347C10.2732 21.5435 10.3778 21.6278 10.4997 21.6768C10.6216 21.7257 10.7554 21.7372 10.8839 21.7096C11.0123 21.6821 11.1297 21.6168 11.2208 21.5221L12.8792 19.8054H13.9558C15.1828 19.8044 16.4071 19.6875 17.6122 19.4563C18.4246 19.2228 19.1675 18.7941 19.7762 18.2074C20.3848 17.6208 20.8405 16.8941 21.1037 16.0908C21.5675 14.0797 21.5907 11.9919 21.1716 9.97098ZM19.8623 15.7902C19.6595 16.3465 19.332 16.8489 18.905 17.2591C18.478 17.6693 17.9628 17.9763 17.3988 18.1566C16.1206 18.3992 14.8199 18.5033 13.5193 18.467C13.5086 18.4625 13.4971 18.4601 13.4854 18.4601C13.4737 18.4601 13.4622 18.4625 13.4514 18.467L12.2294 19.786L10.9395 21.105C10.9178 21.1256 10.8907 21.1394 10.8614 21.1449C10.8321 21.1505 10.8018 21.1474 10.7742 21.1362C10.7465 21.1249 10.7227 21.1059 10.7056 21.0815C10.6885 21.057 10.6788 21.0282 10.6776 20.9983V18.2924C10.6759 18.2714 10.6674 18.2515 10.6534 18.2358C10.6395 18.22 10.6207 18.2093 10.6 18.2051C10.0361 18.0248 9.52083 17.7178 9.09383 17.3076C8.66683 16.8974 8.33939 16.3949 8.13659 15.8387C7.73386 14.0048 7.73386 12.1055 8.13659 10.2716C8.33939 9.71534 8.66683 9.21286 9.09383 8.80267C9.52083 8.39248 10.0361 8.08547 10.6 7.90516C12.8428 7.47643 15.1464 7.47643 17.3891 7.90516C17.9531 8.08547 18.4683 8.39248 18.8953 8.80267C19.3223 9.21286 19.6498 9.71534 19.8526 10.2716C20.2588 12.1047 20.2621 14.0042 19.8623 15.8387V15.7902Z" fill="white"/>
<path d="M17.2833 15.3629C17.0816 15.1937 16.8711 15.0351 16.6529 14.8877C16.4298 14.7325 16.2165 14.5773 15.9837 14.4318C15.8815 14.3555 15.7573 14.3142 15.6297 14.3142C15.5021 14.3142 15.3779 14.3555 15.2757 14.4318C15.0623 14.6064 14.9556 14.9459 14.655 14.9847C14.4785 14.9893 14.3042 14.9457 14.1507 14.8586C13.6897 14.6553 13.2779 14.3552 12.9432 13.9787C12.6085 13.6021 12.3588 13.158 12.2109 12.6764C12.181 12.6161 12.1655 12.5497 12.1655 12.4824C12.1655 12.4151 12.181 12.3487 12.2109 12.2884C12.2529 12.2251 12.3054 12.1693 12.3661 12.1235L12.5698 11.9684C12.7031 11.8759 12.7957 11.7356 12.8282 11.5766C12.8607 11.4177 12.8307 11.2523 12.7444 11.1149C12.468 10.6426 12.1429 10.2005 11.7745 9.79587C11.7065 9.70308 11.6077 9.63749 11.4957 9.61084C11.3838 9.58419 11.266 9.59821 11.1635 9.65039C10.8738 9.78572 10.616 9.98072 10.407 10.2226C10.2739 10.3418 10.1762 10.4954 10.1249 10.6666C10.0735 10.8377 10.0705 11.0197 10.116 11.1925C10.2712 11.5707 10.4264 11.949 10.601 12.3175C10.9705 13.0953 11.4436 13.8196 12.0073 14.4706C13.0277 15.5624 14.2853 16.4053 15.683 16.9341C15.8188 16.9923 15.9643 17.0214 16.1098 17.0699C16.2428 17.0401 16.3727 16.9979 16.4977 16.9438C16.8958 16.7271 17.2124 16.3866 17.3997 15.9739C17.4532 15.8741 17.4708 15.759 17.4496 15.6478C17.4284 15.5366 17.3697 15.4361 17.2833 15.3629Z" fill="white"/>
<path d="M14.0055 9.20313H13.8988C13.8669 9.20286 13.8353 9.20944 13.8061 9.22242C13.777 9.23541 13.751 9.25449 13.7298 9.27839C13.7087 9.3023 13.6929 9.33046 13.6836 9.36098C13.6742 9.39149 13.6716 9.42366 13.6757 9.4553C13.6757 9.62018 13.8697 9.62017 14.0055 9.63957C14.1413 9.65897 14.4225 9.63957 14.6165 9.70746C15.2813 9.8313 15.8909 10.1595 16.3603 10.6463C16.8297 11.1331 17.1355 11.7542 17.2351 12.4231C17.2351 12.6752 17.2836 12.9371 17.303 13.199C17.3224 13.4608 17.3806 13.4511 17.5261 13.4511C17.5569 13.4503 17.5871 13.4427 17.6147 13.429C17.6423 13.4154 17.6666 13.3959 17.686 13.3719C17.7053 13.348 17.7192 13.3201 17.7268 13.2903C17.7344 13.2604 17.7354 13.2293 17.7298 13.199C17.7298 12.8886 17.7298 12.5783 17.6328 12.2291C17.4765 11.3806 17.0283 10.6135 16.3658 10.0608C15.7033 9.50815 14.8683 9.20472 14.0055 9.20313Z" fill="white"/>
<path d="M16.3416 12.7528C16.3324 12.8106 16.3324 12.8696 16.3416 12.9274C16.3548 12.9685 16.3807 13.0044 16.4155 13.0298C16.4504 13.0553 16.4924 13.069 16.5356 13.069C16.5787 13.069 16.6208 13.0553 16.6557 13.0298C16.6905 13.0044 16.7164 12.9685 16.7296 12.9274C16.7327 12.8854 16.7327 12.8433 16.7296 12.8013V12.491V12.3746C16.6836 11.9785 16.5398 11.6 16.3113 11.2733C16.0827 10.9466 15.7765 10.6818 15.4202 10.5027C15.05 10.3135 14.6428 10.2076 14.2273 10.1924C14.2003 10.1897 14.1729 10.1927 14.1471 10.2012C14.1213 10.2097 14.0975 10.2236 14.0774 10.2419C14.0573 10.2601 14.0413 10.2825 14.0303 10.3074C14.0194 10.3322 14.0138 10.3592 14.0139 10.3864C14.0098 10.4134 14.0114 10.4409 14.0187 10.4672C14.026 10.4936 14.0388 10.5181 14.0561 10.5391C14.0735 10.5602 14.0952 10.5773 14.1197 10.5894C14.1442 10.6016 14.1709 10.6084 14.1982 10.6094L14.5474 10.6676C14.7861 10.7049 15.018 10.7767 15.236 10.881C15.5962 11.0592 15.8963 11.339 16.0991 11.686C16.2684 12.0155 16.3518 12.3825 16.3416 12.7528Z" fill="white"/>
<path d="M15.7988 12.6078C15.8077 12.5499 15.8077 12.491 15.7988 12.4332C15.8 12.2681 15.7686 12.1043 15.7063 11.9514C15.644 11.7985 15.5521 11.6594 15.4358 11.5422C15.3195 11.425 15.1811 11.332 15.0287 11.2685C14.8762 11.205 14.7128 11.1724 14.5476 11.1724C14.4944 11.1688 14.4416 11.1845 14.3989 11.2165C14.3562 11.2485 14.3264 11.2948 14.3149 11.347C14.3093 11.3737 14.3091 11.4014 14.3144 11.4282C14.3197 11.4551 14.3304 11.4806 14.3458 11.5032C14.3612 11.5258 14.381 11.5451 14.404 11.56C14.427 11.5748 14.4528 11.5848 14.4797 11.5894C14.5864 11.5894 14.7028 11.5894 14.8192 11.6379C14.9061 11.6625 14.9881 11.7018 15.0617 11.7543C15.2151 11.872 15.3217 12.0405 15.3623 12.2295C15.3685 12.3264 15.3685 12.4236 15.3623 12.5205C15.3623 12.5506 15.3684 12.5804 15.3802 12.6082C15.392 12.6359 15.4093 12.6609 15.431 12.6818C15.4528 12.7026 15.4786 12.7188 15.5067 12.7294C15.5349 12.7401 15.565 12.7449 15.5951 12.7436C15.6398 12.7498 15.6852 12.7394 15.7227 12.7144C15.7603 12.6893 15.7873 12.6514 15.7988 12.6078Z" fill="white"/>
</g>
<defs>
<clipPath id="clip0_339_4097">
<rect width="28" height="28" fill="white"/>
</clipPath>
</defs>
</svg>
